# xmcd CD database file
#
# Track frame offsets:
#	150
#	15589
#	34695
#	50942
#	72851
#	92165
#	113936
#	135022
#	156194
#	178311
#
# Disc length: 2675 seconds
#
# Revision: 1
# Processed by: cddbd v1.5.2PL0 Copyright (c) Steve Scherf et al.
# Submitted via: CDex 2.23
#
DISCID=830a710a
DTITLE=Brian Simpson - South Beach
DYEAR=2010
DGENRE=Smooth Jazz
TTITLE0=South Beach
TTITLE1=Can't Tell You Why
TTITLE2=Lay It on Me
TTITLE3=Never Without You
TTITLE4=Paradise Island
TTITLE5=Old Friends
TTITLE6=All I Want Is You
TTITLE7=Our Love
TTITLE8=Summer's End
TTITLE9=Moonlit Ocean
EXTD=YEAR: 2010
EXTT0=
EXTT1=
EXTT2=
EXTT3=
EXTT4=
EXTT5=
EXTT6=
EXTT7=
EXTT8=
EXTT9=
PLAYORDER=
